<mxfile host="app.diagrams.net" agent="Mozilla/5.0 (Macintosh; Intel Mac OS X 10_15_7) AppleWebKit/537.36 (KHTML, like Gecko) Chrome/129.0.0.0 Safari/537.36" version="26.2.9">
  <diagram name="Page-1" id="lHRcLcdtZNrz0P13an0p">
    <mxGraphModel dx="1089" dy="778" grid="1" gridSize="10" guides="1" tooltips="1" connect="1" arrows="1" fold="1" page="0" pageScale="1" pageWidth="850" pageHeight="1100" math="0" shadow="0">
      <root>
        <mxCell id="0" />
        <mxCell id="1" parent="0" />
        <mxCell id="vuHTe9osoYitYibAq7cG-3" value="" style="edgeStyle=orthogonalEdgeStyle;rounded=0;orthogonalLoop=1;jettySize=auto;html=1;" edge="1" parent="1" source="vuHTe9osoYitYibAq7cG-1" target="vuHTe9osoYitYibAq7cG-2">
          <mxGeometry relative="1" as="geometry" />
        </mxCell>
        <mxCell id="vuHTe9osoYitYibAq7cG-1" value="" style="whiteSpace=wrap;html=1;aspect=fixed;" vertex="1" parent="1">
          <mxGeometry x="390" y="360" width="80" height="80" as="geometry" />
        </mxCell>
        <mxCell id="vuHTe9osoYitYibAq7cG-5" value="" style="edgeStyle=orthogonalEdgeStyle;rounded=0;orthogonalLoop=1;jettySize=auto;html=1;" edge="1" parent="1" source="vuHTe9osoYitYibAq7cG-2" target="vuHTe9osoYitYibAq7cG-4">
          <mxGeometry relative="1" as="geometry" />
        </mxCell>
        <mxCell id="vuHTe9osoYitYibAq7cG-2" value="" style="whiteSpace=wrap;html=1;" vertex="1" parent="1">
          <mxGeometry x="370" y="210" width="120" height="60" as="geometry" />
        </mxCell>
        <mxCell id="vuHTe9osoYitYibAq7cG-7" value="" style="edgeStyle=orthogonalEdgeStyle;rounded=0;orthogonalLoop=1;jettySize=auto;html=1;" edge="1" parent="1" source="vuHTe9osoYitYibAq7cG-4" target="vuHTe9osoYitYibAq7cG-6">
          <mxGeometry relative="1" as="geometry" />
        </mxCell>
        <mxCell id="vuHTe9osoYitYibAq7cG-4" value="" style="ellipse;whiteSpace=wrap;html=1;" vertex="1" parent="1">
          <mxGeometry x="390" y="60" width="80" height="80" as="geometry" />
        </mxCell>
        <mxCell id="vuHTe9osoYitYibAq7cG-6" value="" style="rhombus;whiteSpace=wrap;html=1;" vertex="1" parent="1">
          <mxGeometry x="230" y="60" width="80" height="80" as="geometry" />
        </mxCell>
        <mxCell id="vuHTe9osoYitYibAq7cG-9" style="edgeStyle=orthogonalEdgeStyle;rounded=0;orthogonalLoop=1;jettySize=auto;html=1;entryX=0.5;entryY=1;entryDx=0;entryDy=0;" edge="1" parent="1" source="vuHTe9osoYitYibAq7cG-8" target="vuHTe9osoYitYibAq7cG-6">
          <mxGeometry relative="1" as="geometry" />
        </mxCell>
        <mxCell id="vuHTe9osoYitYibAq7cG-8" value="DB" style="shape=cylinder3;whiteSpace=wrap;html=1;boundedLbl=1;backgroundOutline=1;size=15;" vertex="1" parent="1">
          <mxGeometry x="240" y="220" width="60" height="80" as="geometry" />
        </mxCell>
      </root>
    </mxGraphModel>
  </diagram>
</mxfile>
